<?xml version="1.0" encoding="utf-8"?>
<!-- Generator: Adobe Illustrator 23.1.0, SVG Export Plug-In . SVG Version: 6.00 Build 0)  -->
<svg version="1.1" id="Layer_1" xmlns="http://www.w3.org/2000/svg" xmlns:xlink="http://www.w3.org/1999/xlink" x="0px" y="0px"
	 viewBox="0 0 25 19" style="enable-background:new 0 0 25 19;" xml:space="preserve">
<style type="text/css">
	.st0{fill:#FFFFFF;}
</style>
<g>
	<g>
		<g>
			<g>
				<path class="st0" d="M13.9,0.9c-4.7,0-8.6,3.8-8.6,8.6H2.5l3.8,3.8l3.8-3.8H7.3c0-3.7,3-6.7,6.7-6.7s6.7,3,6.7,6.7
					s-3,6.7-6.7,6.7c-1.4,0-2.8-0.5-3.9-1.2l-1.3,1.4c1.4,1.1,3.3,1.8,5.2,1.8c4.7,0,8.6-3.8,8.6-8.6S18.7,0.9,13.9,0.9z"/>
				<path class="st0" d="M15.8,9.5c0-1.1-0.9-1.9-1.9-1.9S12,8.4,12,9.5s0.9,1.9,1.9,1.9S15.8,10.6,15.8,9.5z"/>
			</g>
		</g>
	</g>
</g>
</svg>
